# xmcd
#
# Track frame offsets: 
#        150
#        15595
#        29490
#        43917
#        61555
#        77510
#        91567
#        105592
#        116270
#        131535
#        144415
#        158260
#        166677
#        179132
#        195550
#        219142
#        236005
#        251907
#        264745
#        276465
#        290497
#        306572
#        320830
#
# Disc length: 4437 seconds
#
# Revision: 1
# Processed by: cddbd v1.4PL0 Copyright (c) Steve Scherf et al.
# Submitted via: ExactAudioCopy v0.95a3
#
DISCID=40115317
DTITLE=Axton, Hoyt - The A&M Years [CD1]
DYEAR=1900
DGENRE=Country
TTITLE0=Sweet Misery
TTITLE1=Less Than The Song
TTITLE2=Sweet Fantasy
TTITLE3=Days Are Short
TTITLE4=Mary Makes Magic
TTITLE5=Peacemaker
TTITLE6=Nothin' To Lose
TTITLE7=Oklahoma Song
TTITLE8=Mexico City Hangover
TTITLE9=Hungry Man
TTITLE10=Somebody Turned On The Light
TTITLE11=Blue Prelude
TTITLE12=Maybelline
TTITLE13=Life Machine
TTITLE14=That's All Right
TTITLE15=Geronimo's Cadillac
TTITLE16=When The Morning Comes
TTITLE17=Good Lookin' Child
TTITLE18=I Dream Of Highways
TTITLE19=Pet Parade
TTITLE20=Telehpone Booth
TTITLE21=Boney Fingers
TTITLE22=Billy's Theme
EXTD=
EXTT0=
EXTT1=
EXTT2=
EXTT3=
EXTT4=
EXTT5=
EXTT6=
EXTT7=
EXTT8=
EXTT9=
EXTT10=
EXTT11=
EXTT12=
EXTT13=
EXTT14=
EXTT15=
EXTT16=
EXTT17=
EXTT18=
EXTT19=
EXTT20=
EXTT21=
EXTT22=
PLAYORDER=
